<?xml version="1.0" encoding="UTF-8" standalone="no"?>
<!-- Created with Inkscape (http://www.inkscape.org/) -->

<svg
   width="1128"
   height="376"
   viewBox="0 0 298.44999 99.483336"
   version="1.1"
   id="svg32854"
   inkscape:version="1.1 (c68e22c387, 2021-05-23)"
   sodipodi:docname="SoloClaro.svg"
   xmlns:inkscape="http://www.inkscape.org/namespaces/inkscape"
   xmlns:sodipodi="http://sodipodi.sourceforge.net/DTD/sodipodi-0.dtd"
   xmlns="http://www.w3.org/2000/svg"
   xmlns:svg="http://www.w3.org/2000/svg">
  <sodipodi:namedview
     id="namedview32856"
     pagecolor="#505050"
     bordercolor="#eeeeee"
     borderopacity="1"
     inkscape:pageshadow="0"
     inkscape:pageopacity="0"
     inkscape:pagecheckerboard="0"
     inkscape:document-units="mm"
     showgrid="false"
     units="px"
     inkscape:zoom="1"
     inkscape:cx="564"
     inkscape:cy="187.5"
     inkscape:window-width="1920"
     inkscape:window-height="1013"
     inkscape:window-x="1911"
     inkscape:window-y="-9"
     inkscape:window-maximized="1"
     inkscape:current-layer="text2786" />
  <defs
     id="defs32851">
    <rect
       x="113.13709"
       y="164.04877"
       width="783.47437"
       height="227.68839"
       id="rect2788-3" />
    <rect
       x="446.89148"
       y="206.47517"
       width="487.90369"
       height="52.325905"
       id="rect9846-74" />
  </defs>
  <g
     inkscape:label="Capa 1"
     inkscape:groupmode="layer"
     id="layer1">
    <g
       aria-label="&lt;/SILVA&gt;"
       transform="matrix(0.26458333,0,0,0.26458333,19.276578,-30.483079)"
       id="text2786"
       style="font-size:192px;line-height:1.25;letter-spacing:0px;word-spacing:0px;white-space:pre;shape-inside:url(#rect2788-3);display:inline">
      <path
         d="m 196.46472,228.62425 9.6,21.312 -60.672,25.344 60.672,24.576 -9.6,22.08 -76.8,-33.216 v -26.688 z"
         style="font-weight:bold;font-family:'Fira Sans';-inkscape-font-specification:'Fira Sans Bold';fill:#fbd214"
         id="path32999" />
      <path
         d="m 272.11255,182.54425 26.496,5.952 -45.12,172.224 -26.688,-6.144 z"
         style="font-weight:bold;font-family:'Fira Sans';-inkscape-font-specification:'Fira Sans Bold';fill:#fbd214"
         id="path33001" />
      <path
         d="m 377.52027,202.89625 q 27.264,0 44.352,17.472 l -16.512,16.512 q -11.52,-10.944 -26.88,-10.944 -9.216,0 -14.784,4.032 -5.376,3.84 -5.376,10.752 0,5.76 4.608,9.216 4.608,3.456 17.664,7.872 17.088,5.568 25.536,14.4 8.64,8.832 8.64,23.424 0,11.904 -5.952,22.656 -5.76,10.56 -18.624,17.472 -12.672,6.72 -32.256,6.72 -16.128,0 -28.224,-5.184 -11.904,-5.376 -20.16,-14.208 l 17.856,-17.664 q 12.672,13.056 31.296,13.056 10.944,0 17.088,-4.8 6.336,-4.8 6.336,-13.248 0,-6.528 -4.608,-10.56 -4.416,-4.032 -16.32,-8.256 -18.816,-6.336 -27.072,-15.168 -8.256,-8.832 -8.256,-22.08 0,-10.56 5.76,-19.968 5.76,-9.6 17.28,-15.552 11.712,-5.952 28.608,-5.952 z"
         style="font-style:italic;font-weight:bold;font-family:'Fira Sans';-inkscape-font-specification:'Fira Sans Bold Italic';fill:#ffffff"
         id="path33003" />
      <path
         d="m 475.24795,206.16025 -18.624,133.056 h -30.912 l 18.624,-133.056 z"
         style="font-style:italic;font-weight:bold;font-family:'Fira Sans';-inkscape-font-specification:'Fira Sans Bold Italic';fill:#ffffff"
         id="path33005" />
      <path
         d="m 530.92776,206.16025 -14.976,108.096 h 50.88 l -6.528,24.96 h -78.912 l 18.624,-133.056 z"
         style="font-style:italic;font-weight:bold;font-family:'Fira Sans';-inkscape-font-specification:'Fira Sans Bold Italic';fill:#ffffff"
         id="path33007" />
      <path
         d="m 677.61521,206.16025 -55.104,133.056 h -38.4 l -19.392,-133.056 h 32.448 l 9.6,108.48 38.784,-108.48 z"
         style="font-style:italic;font-weight:bold;font-family:'Fira Sans';-inkscape-font-specification:'Fira Sans Bold Italic';fill:#ffffff"
         id="path33009" />
      <path
         d="m 734.4467,339.21625 -2.688,-28.608 h -38.592 l -10.56,28.608 h -32.256 l 58.176,-133.056 h 37.632 l 20.736,133.056 z m -33.024,-51.456 h 28.032 l -5.76,-60.48 z"
         style="font-style:italic;font-weight:bold;font-family:'Fira Sans';-inkscape-font-specification:'Fira Sans Bold Italic';fill:#ffffff"
         id="path33011" />
      <path
         d="m 787.82258,228.62425 76.8,33.408 v 26.688 l -76.8,33.216 -9.6,-22.08 60.672,-24.576 -60.672,-25.344 z"
         style="font-weight:bold;font-family:'Fira Sans';-inkscape-font-specification:'Fira Sans Bold';fill:#fbd214"
         id="path33013" />
    </g>
    <g
       aria-label="Web Developer"
       transform="matrix(0.26458333,0,0,0.26458333,-9.1656417,12.168682)"
       id="text9844"
       style="font-size:37.3333px;line-height:1.25;letter-spacing:0px;word-spacing:0px;white-space:pre;shape-inside:url(#rect9846-74);display:inline;fill:#cfcfcf">
      <path
         d="m 454.36458,241.30054 q 0.47395,-1.85938 0.47395,-4.86719 0,-7.40103 -1.16666,-14.25519 -1.14844,-6.87239 -2.97135,-10.3177 1.85937,-0.45573 2.69791,-0.45573 1.20313,0 1.75,1.13021 0.5651,1.1302 1.42187,5.34114 1.33073,6.45312 1.93229,17.68227 6.08854,-12.54165 9.93489,-19.66925 0.23698,-0.0365 0.34636,-0.0547 0.76562,-0.16406 1.03906,-0.16406 1.51302,0 1.51302,1.4401 0,0.41927 -0.0911,1.03906 -0.72917,5.92448 -0.72917,8.75 l -0.0547,2.07812 -0.0182,1.23958 q 0,6.83593 2.07812,6.83593 2.36979,0 4.84896,-4.95832 2.7526,-5.54167 2.7526,-12.9427 0,-3.1901 -1.58594,-5.94271 1.3125,-0.32812 2.38802,-0.32812 1.67708,0 2.36979,0.94792 0.69271,0.92968 0.69271,3.24478 0,7.49219 -4.32031,15.27603 -1.98698,3.57292 -4.48437,5.88802 -2.47917,2.3151 -4.33854,2.3151 -2.07812,0 -2.93489,-2.3151 -0.83854,-2.3151 -0.83854,-8.0026 0,-2.27864 0.23697,-6.99999 -4.39322,7.61978 -6.70832,12.57811 l -0.60157,1.33073 q -1.29427,2.66146 -2.05989,3.22656 -0.74739,0.5651 -3.57291,0.92969 z"
         style="font-family:'Lucida Handwriting';-inkscape-font-specification:'Lucida Handwriting'"
         id="path33016" />
      <path
         d="m 490.80465,232.95159 q 0,5.34114 4.52083,5.34114 3.91927,0 8.64062,-3.73698 4.72135,-3.73698 8.51301,-9.84374 l 1.54948,0.85677 q -3.57291,6.67187 -9.29687,11.04686 -5.70572,4.375 -10.82811,4.375 -3.28125,0 -5.19531,-2.11458 -1.89583,-2.11458 -1.89583,-5.77864 0,-5.28646 3.44531,-9.04166 3.46354,-3.75521 8.33072,-3.75521 2.35156,0 3.7552,1.1849 1.42188,1.18489 1.42188,3.17187 0,3.26302 -3.9375,5.77864 -3.91927,2.51563 -9.02343,2.51563 z m 0.14583,-1.75 q 3.8099,-0.20052 6.52604,-2.1875 2.73437,-1.98698 2.73437,-4.59375 0,-2.33333 -2.07812,-2.33333 -2.47916,0 -4.57552,2.66146 -2.09635,2.66145 -2.60677,6.45312 z"
         style="font-family:'Lucida Handwriting';-inkscape-font-specification:'Lucida Handwriting'"
         id="path33018" />
      <path
         d="m 528.02858,227.82919 q 0.25521,0.89323 0.25521,1.82292 0,4.57552 -3.20833,7.96614 -3.20833,3.37239 -7.54687,3.37239 -3.17187,0 -5.17708,-1.89583 -1.98698,-1.89583 -1.98698,-4.88541 0,-2.16927 0.80208,-6.21614 l 3.0625,-15.45832 q -0.89323,0.16406 -1.56771,0.16406 -3.90103,0 -3.90103,-4.0651 1.18489,1.13021 3.79166,1.13021 2.27864,0 6.07031,-1.16667 l -4.30208,21.58331 q -0.41927,2.1875 -0.41927,3.86458 0,2.24219 1.18489,3.64583 1.1849,1.38542 3.08073,1.38542 2.86197,0 4.84895,-2.58854 2.00521,-2.60677 2.00521,-6.28906 0,-1.82291 -0.60156,-3.55468 -2.29688,-0.76563 -3.77344,-1.98698 -1.45833,-1.22135 -1.45833,-2.40625 0,-0.61979 0.51042,-1.62239 4.92187,0.38281 7.49218,4.26562 2.36979,1.13021 4.99478,1.13021 2.67969,0 5.45052,-1.6224 l 0.92969,1.47656 q -3.17187,2.40625 -7.10937,2.40625 -1.80469,0 -3.42708,-0.45573 z"
         style="font-family:'Lucida Handwriting';-inkscape-font-specification:'Lucida Handwriting'"
         id="path33020" />
      <path
         d="m 544.76294,223.30836 q -0.4375,-0.94791 -0.4375,-1.95051 0,-3.28125 5.01301,-5.86979 5.01302,-2.60677 11.35676,-2.60677 6.67187,0 10.5,2.95312 3.84635,2.95312 3.84635,8.09375 0,6.83593 -5.96094,12.04946 -3.15364,2.75261 -7.89322,4.5026 -4.72135,1.75 -9.04166,1.75 -4.15624,0 -4.15624,-3.11718 0,-1.13021 0.71093,-4.66666 l 2.36979,-11.90364 q 0.3099,-1.53125 0.3099,-2.20573 0,-0.63802 -0.4375,-1.16666 2.42448,-0.91146 3.37239,-0.91146 1.13021,0 1.13021,1.3125 0,0.30989 -0.58333,3.1901 l -1.98698,9.97135 q -0.7474,3.80989 -0.7474,4.79426 0,1.09375 0.72917,1.49479 0.74739,0.38281 2.78906,0.38281 6.61718,0 11.08332,-4.02864 4.46615,-4.02864 4.46615,-9.98957 0,-4.61198 -3.24479,-7.38281 -3.24479,-2.77083 -8.64062,-2.77083 -4.39323,0 -8.20312,2.11458 -3.79166,2.11458 -6.34374,5.96093 z"
         style="font-family:'Lucida Handwriting';-inkscape-font-specification:'Lucida Handwriting'"
         id="path33022" />
      <path
         d="m 582.09624,232.95159 q 0,5.34114 4.52083,5.34114 3.91927,0 8.64062,-3.73698 4.72135,-3.73698 8.51301,-9.84374 l 1.54948,0.85677 q -3.57291,6.67187 -9.29687,11.04686 -5.70572,4.375 -10.82811,4.375 -3.28125,0 -5.19531,-2.11458 -1.89583,-2.11458 -1.89583,-5.77864 0,-5.28646 3.44531,-9.04166 3.46354,-3.75521 8.33072,-3.75521 2.35156,0 3.75521,1.1849 1.42187,1.18489 1.42187,3.17187 0,3.26302 -3.9375,5.77864 -3.91927,2.51563 -9.02343,2.51563 z m 0.14584,-1.75 q 3.80989,-0.20052 6.52603,-2.1875 2.73437,-1.98698 2.73437,-4.59375 0,-2.33333 -2.07812,-2.33333 -2.47916,0 -4.57552,2.66146 -2.09635,2.66145 -2.60676,6.45312 z"
         style="font-family:'Lucida Handwriting';-inkscape-font-specification:'Lucida Handwriting'"
         id="path33024" />
      <path
         d="m 605.48424,241.0271 q 0.40105,-1.60417 0.40105,-2.77083 0,-4.5026 -1.91407,-9.95312 -1.91406,-5.45051 -4.48437,-8.22135 1.58594,-0.80208 2.84375,-0.80208 2.00521,0 4.04687,5.26823 2.0599,5.24999 2.95313,12.70571 3.1901,-4.04687 5.26822,-8.34895 2.07812,-4.30208 2.35156,-7.41926 2.73437,1.09375 2.73437,2.47916 0,1.23959 -2.62499,5.61458 -2.60677,4.375 -5.66927,8.27604 -1.49479,1.89583 -2.51562,2.4427 -1.02084,0.54688 -3.39063,0.72917 z"
         style="font-family:'Lucida Handwriting';-inkscape-font-specification:'Lucida Handwriting'"
         id="path33026" />
      <path
         d="m 625.00766,232.95159 q 0,5.34114 4.52083,5.34114 3.91926,0 8.64061,-3.73698 4.72136,-3.73698 8.51302,-9.84374 l 1.54948,0.85677 q -3.57292,6.67187 -9.29687,11.04686 -5.70573,4.375 -10.82812,4.375 -3.28124,0 -5.1953,-2.11458 -1.89584,-2.11458 -1.89584,-5.77864 0,-5.28646 3.44531,-9.04166 3.46354,-3.75521 8.33073,-3.75521 2.35156,0 3.7552,1.1849 1.42187,1.18489 1.42187,3.17187 0,3.26302 -3.93749,5.77864 -3.91927,2.51563 -9.02343,2.51563 z m 0.14583,-1.75 q 3.80989,-0.20052 6.52604,-2.1875 2.73437,-1.98698 2.73437,-4.59375 0,-2.33333 -2.07812,-2.33333 -2.47917,0 -4.57552,2.66146 -2.09635,2.66145 -2.60677,6.45312 z"
         style="font-family:'Lucida Handwriting';-inkscape-font-specification:'Lucida Handwriting'"
         id="path33028" />
      <path
         d="m 663.38003,225.67815 q -3.77343,7.16406 -7.58333,11.24739 -3.80989,4.0651 -6.74478,4.0651 -2.13281,0 -3.44531,-1.64062 -1.3125,-1.65886 -1.3125,-4.32031 0,-1.49479 0.54687,-4.22916 l 3.6276,-18.26561 q -0.71093,0.10937 -1.23958,0.10937 -4.1927,0 -4.1927,-3.5 v -0.41927 q 2.18749,1.23959 4.9401,1.23959 2.7526,0 4.81249,-1.36719 l -4.22916,21.92967 q -0.5651,2.95312 -0.5651,4.0651 0,3.08073 2.26041,3.08073 2.1875,0 4.39323,-2.46094 2.22395,-2.47916 7.27343,-10.53645 z"
         style="font-family:'Lucida Handwriting';-inkscape-font-specification:'Lucida Handwriting'"
         id="path33030" />
      <path
         d="m 677.87221,227.10003 q 0.0547,0.4375 0.0547,0.78385 0,5.26823 -3.57291,9.18749 -3.57291,3.91927 -8.36718,3.91927 -3.66406,0 -5.97916,-2.33333 -2.29687,-2.35156 -2.29687,-6.08854 0,-4.24739 2.97135,-7.36457 2.98958,-3.11719 7.03645,-3.11719 0.61979,0 1.3125,0.16406 -0.45573,-0.82031 -0.45573,-1.38541 0,-0.875 0.60156,-1.67708 4.44792,0.36458 7.40104,4.55728 3.02604,2.0599 6.30728,2.0599 2.13281,0 4.61198,-1.4401 l 0.91146,1.54947 q -2.89844,2.02344 -5.94271,2.02344 -2.02343,0 -4.59374,-0.83854 z m -4.13802,-1.54948 q -1.51302,-0.45573 -2.78906,-1.45833 -0.92969,-0.20052 -1.54948,-0.20052 -3.09895,0 -5.5052,2.78906 -2.38802,2.78906 -2.38802,6.36197 0,2.58854 1.4401,4.26562 1.45833,1.65886 3.73698,1.65886 3.08072,0 5.30468,-3.09896 2.22396,-3.11719 2.22396,-7.41927 0,-1.49479 -0.47396,-2.89843 z"
         style="font-family:'Lucida Handwriting';-inkscape-font-specification:'Lucida Handwriting'"
         id="path33032" />
      <path
         d="m 686.84095,239.4047 -1.33073,6.74479 q -0.45573,2.27864 -0.45573,3.97396 0,1.07552 0.47396,1.95051 -1.84114,0.60157 -2.80729,0.60157 -1.51302,0 -1.51302,-1.71354 0,-1.33073 0.60156,-4.35677 l 5.32292,-26.76039 q -1.58594,0.32812 -2.66146,0.32812 -1.58594,0 -2.35156,-0.74739 -0.74739,-0.76563 -1.20312,-2.82552 1.33072,0.89323 4.04687,0.89323 3.37239,0 6.48958,-1.23959 l -1.40365,7.03646 q 3.09896,-2.98959 6.41666,-2.98959 2.89844,0 4.83073,2.20573 1.93229,2.1875 1.93229,5.46875 0,5.12239 -3.55469,8.84114 -3.55468,3.71874 -8.44009,3.71874 -2.64323,0 -4.39323,-1.13021 z m 0.5651,-2.82551 q 1.84115,2.15104 4.52083,2.15104 3.20833,0 5.45052,-2.69792 2.26041,-2.69791 2.26041,-6.56249 0,-2.78906 -1.27604,-4.52083 -1.27604,-1.73177 -3.3177,-1.73177 -2.55208,0 -5.54166,2.8802 z"
         style="font-family:'Lucida Handwriting';-inkscape-font-specification:'Lucida Handwriting'"
         id="path33034" />
      <path
         d="m 709.86436,232.95159 q 0,5.34114 4.52083,5.34114 3.91927,0 8.64062,-3.73698 4.72135,-3.73698 8.51301,-9.84374 l 1.54948,0.85677 q -3.57291,6.67187 -9.29687,11.04686 -5.70572,4.375 -10.82811,4.375 -3.28125,0 -5.19531,-2.11458 -1.89583,-2.11458 -1.89583,-5.77864 0,-5.28646 3.44531,-9.04166 3.46354,-3.75521 8.33072,-3.75521 2.35156,0 3.75521,1.1849 1.42187,1.18489 1.42187,3.17187 0,3.26302 -3.9375,5.77864 -3.91927,2.51563 -9.02343,2.51563 z m 0.14584,-1.75 q 3.80989,-0.20052 6.52603,-2.1875 2.73437,-1.98698 2.73437,-4.59375 0,-2.33333 -2.07812,-2.33333 -2.47916,0 -4.57552,2.66146 -2.09635,2.66145 -2.60676,6.45312 z"
         style="font-family:'Lucida Handwriting';-inkscape-font-specification:'Lucida Handwriting'"
         id="path33036" />
      <path
         d="m 732.45029,240.40731 q -1.23958,0.58333 -1.98698,0.58333 -1.85937,0 -1.85937,-1.64062 0,-0.83854 0.65625,-4.17448 l 0.91146,-4.53906 q 0.83854,-4.04687 0.83854,-5.99739 0,-1.05729 -0.60157,-1.76823 1.91407,-0.65624 3.11719,-0.65624 1.27604,0 1.27604,1.62239 0,1.0026 -0.91146,5.26822 l -1.03906,5.30469 q 3.44531,-6.6901 6.92708,-10.39062 3.49999,-3.71875 6.34374,-3.71875 1.00261,0 1.73177,0.58334 0.72917,0.5651 0.72917,1.38541 0,1.27604 -2.77083,3.39062 -0.69271,-1.4401 -1.96875,-1.4401 -2.3151,0 -5.90625,4.92187 -2.22395,3.0625 -3.86458,6.32552 -1.64062,3.24479 -1.64062,4.6302 z"
         style="font-family:'Lucida Handwriting';-inkscape-font-specification:'Lucida Handwriting'"
         id="path33038" />
    </g>
  </g>
</svg>
